<svg xmlns="http://www.w3.org/2000/svg" viewBox="0 0 181 118" width="13" height="8"><defs><clipPath clipPathUnits="userSpaceOnUse" id="cp1"><path d="M0 0h180v116H0z"/></clipPath></defs><style></style><g id="Page 1" clip-path="url(#cp1)"><path id="Path 1" d="M176.13 30.86c-5.55 2.89-73.67 38.51-77.07 40.28-3.4 1.78-5.78 2.01-9.06 2.01-3.29 0-5.66-.23-9.06-2.01-3.4-1.77-71.52-37.39-77.07-40.28-3.9-2.04-3.87.35-3.87 2.19v73.36C0 110.6 5.58 116 9.92 116h160.16c4.34 0 9.92-5.4 9.92-9.59V33.05c0-1.84.04-4.23-3.87-2.19zm-170.19-20c4.88 2.62 72.48 38.93 75 40.28 2.51 1.36 5.77 2.01 9.06 2.01 3.28 0 6.54-.65 9.06-2.01 2.52-1.35 70.12-37.66 75-40.28 4.88-2.63 9.51-10.86.53-10.86H5.4c-8.96 0-4.35 8.23.54 10.86z" fill="#f0d8d9"/></g></svg>